<?xml version="1.0" ?><svg style="enable-background:new 0 0 256 256;" version="1.1" viewBox="0 0 256 256" xml:space="preserve" xmlns="http://www.w3.org/2000/svg" xmlns:xlink="http://www.w3.org/1999/xlink"><style type="text/css">
	.st0{fill:#00A388;}
	.st1{fill:#EA685E;stroke:#00886F;stroke-width:15;stroke-miterlimit:10;}
	.st2{fill:#E8E8E8;}
	.st3{fill:#FFFFFF;stroke:#00886F;stroke-width:15;stroke-miterlimit:10;}
	.st4{fill:#00886F;}
	.st5{fill:#FFFFFF;}
	.st6{fill:#CCCCCC;}
	.st7{fill:none;stroke:#00A388;stroke-width:4;stroke-miterlimit:10;}
	.st8{fill:#EA685E;}
	.st9{fill:#FFAB80;}
	.st10{fill:#2C3E50;}
	.st11{fill:#4B687F;}
	.st12{fill:none;stroke:#3E5063;stroke-width:4;stroke-miterlimit:10;}
	.st13{fill:#FFD766;}
	.st14{fill:#FFE6D3;}
	.st15{fill:#F09A79;}
	.st16{fill:#C91E01;}
	.st17{fill:#EA3B28;}
	.st18{fill:#0F627F;}
	.st19{fill:#005670;}
	.st20{filter:url(#Adobe_OpacityMaskFilter);}
	.st21{mask:url(#SVGID_2_);}
	.st22{fill:#8C623B;}
	.st23{fill:#E6E6E6;stroke:#005670;stroke-width:16;stroke-miterlimit:10;}
	.st24{opacity:0.6;}
	.st25{fill:#E6E6E6;}
	.st26{fill:#FFEC82;}
	.st27{fill:#FFCF3A;}
	.st28{filter:url(#Adobe_OpacityMaskFilter_1_);}
	.st29{mask:url(#SVGID_1_);}
	.st30{fill:#603813;}
	.st31{fill:#F2F2F2;}
	.st32{fill:#666666;}
</style><g id="Layer_2"><circle class="st2" cx="128" cy="128" r="120"/></g><g id="Layer_1"><g><g><path class="st16" d="M127.996353,59.899883C97.909142,59.899883,73.5,84.306282,73.5,114.399895     c0,35.001732,39.238586,78.687233,45.416214,85.369911c2.554527,2.764603,4.680717,5.463425,9.081047,5.463425     c4.401237,0,6.526512-2.698822,9.080132-5.463425C143.25502,193.088013,182.5,149.402542,182.5,114.399895     C182.4991,84.306297,158.083557,59.899883,127.996353,59.899883z"/></g><g><path class="st17" d="M127.996353,50.766773C97.909142,50.766773,73.5,75.17318,73.5,105.266785     c0,35.00174,39.238586,78.687225,45.416214,85.369904c2.554527,2.764603,4.680717,5.463425,9.081047,5.463425     c4.401237,0,6.526512-2.698822,9.080132-5.463425C143.25502,183.95491,182.5,140.269424,182.5,105.266785     C182.4991,75.173187,158.083557,50.766773,127.996353,50.766773z"/></g><g><circle class="st5" cx="127.997948" cy="105.265869" r="36.332657"/></g><g><path class="st18" d="M127.99659,77.868614c-15.111115,0-27.400024,12.275124-27.400024,27.398636     c0,15.122147,12.287521,27.395882,27.400024,27.395882s27.398628-12.273735,27.398628-27.395882     C155.395218,90.142349,143.109085,77.868614,127.99659,77.868614z"/></g></g></g></svg>