<svg id="SvgjsSvg1001" width="288" height="288" xmlns="http://www.w3.org/2000/svg" version="1.1" xmlns:xlink="http://www.w3.org/1999/xlink" xmlns:svgjs="http://svgjs.com/svgjs"><defs id="SvgjsDefs1002"></defs><g id="SvgjsG1008"><svg xmlns="http://www.w3.org/2000/svg" width="288" height="288" version="1" viewBox="0 0 300 272"><path fill="#d8d8d8" d="M200.8 2c-11 1.9-25 7.7-34 14.2-5.7 4.1-11.3 9.5-90.1 87.3-40.2 39.6-62.3 62.2-65.2 66.5-17.9 26.4-13.8 61.6 9.8 83.7 11.1 10.4 24.5 16.1 39.8 17 15.8.9 28.2-2.2 40.6-10.3 3.3-2.2 22.3-20.1 43.8-41.4 20.9-20.6 53.2-52.6 71.8-71 18.7-18.4 35.4-35.8 37.2-38.5 18-28 1.1-65.1-32.2-70.7-9.9-1.6-18.5-.1-28 4.9-6.5 3.4-12.8 9.3-61.2 57.2-29.7 29.3-54.5 54.7-55.1 56.2-1.4 3.2-.6 7.5 1.7 10.1 2.5 2.8 7.8 3.3 11.1 1.2 1.5-1 26.5-25.4 55.5-54.3C203.9 56.7 203.5 57 214.6 57c8.6 0 15 2.5 20.4 8 8.1 8 10.5 21.3 5.6 31.5-2.5 5.2-1.6 4.3-105.1 106.5-43.7 43.2-46 45.1-59 48.5-18.9 4.9-39.6-3.6-50.6-20.6-9.5-14.8-9.2-35.5.6-50.3 1.9-2.8 13.2-14.8 25.2-26.6s38.2-37.6 58.3-57.5c66.7-65.9 64.2-63.6 75-68.8 11.3-5.4 17-6.7 29.3-6.7 17.8 0 33.2 6.4 45.7 18.9 12.8 12.9 19.2 28.2 19.2 46.1 0 11.1-2.3 20.3-7.4 30.4-3.9 7.8-6.4 10.4-58.9 63.1-30.1 30.2-55.2 56-55.9 57.3-.8 1.7-.8 3.1 0 5.7 1.4 4.3 4.4 6.5 9 6.5 3.3 0 6.7-3.3 58.8-55.3 58.1-58 61.9-62.3 68-76.8 7.4-17.8 8.3-39.9 2.3-57.9-9.7-29.1-33.5-50.3-63.3-56.4-8.1-1.7-22.9-1.9-31-.6z" class="color353535 svgShape"></path></svg></g></svg>